# xmcd
#
# Track frame offsets: 
#        150
#        16318
#        33795
#        52615
#        68265
#        86970
#        104060
#        125413
#        141045
#        153440
#        169495
#        189670
#
# Disc length: 2773 seconds
#
# Revision: 0
# Processed by: cddbd v1.4PL0 Copyright (c) Steve Scherf et al.
# Submitted via: ExactAudioCopy v0.90b4
#
DISCID=990ad30c
DTITLE=Kenny Wayne - 88th and Jump Street
DYEAR=2002
DGENRE=Blues
TTITLE0=My Nadine
TTITLE1=River Of No Return
TTITLE2=Laughing Stock
TTITLE3=My New Gal
TTITLE4=Going Down South
TTITLE5=Whiskey Heaven
TTITLE6=With These Hands
TTITLE7=88th and Jump Street
TTITLE8=Don't Knock On My Door
TTITLE9=Where Did My Baby Go?
TTITLE10=Smokin' Boogie
TTITLE11=We Love The Blues
EXTD=
EXTT0=
EXTT1=
EXTT2=
EXTT3=
EXTT4=
EXTT5=
EXTT6=
EXTT7=
EXTT8=
EXTT9=
EXTT10=
EXTT11=
PLAYORDER=
